PathFileType	4	(X/Y/Z)	Kaydara																																																																																																																									
DataRate	CameraRate	NumFrames	NumMarkers	Units	OrigDataRate	OrigDataStartFrame	OrigNumFrames																																																																																																																					
30	30	4	41	mm	30	1	195																																																																																																																					
Frame#	Time	NABA_LFHD			NABA_RFHD			NABA_LBHD			NABA_RBHD			NABA_LFTShould			NABA_RFTShould			NABA_LRRShould			NABA_RRRShould			NABA_T10			NABA_STRN			NABA_TRUN			NABA_LSHO			NABA_LUPA			NABA_LELB			NABA_LFRM			NABA_LWRA			NABA_LWRB			NABA_LFIN			NABA_RSHO			NABA_RUPA			NABA_RELB			NABA_RFRM			NABA_RWRA			NABA_RWRB			NABA_RFIN			NABA_LFWT			NABA_RFWT			NABA_LBWT			NABA_RBWT			NABA_LTHI			NABA_LKNE			NABA_LSHN			NABA_LANK			NABA_LHEE			NABA_LTOE			NABA_RTHI			NABA_RKNE			NABA_RSHN			NABA_RANK			NABA_RHEE			NABA_RTOE		
		X1	Y1	Z1	X2	Y2	Z2	X3	Y3	Z3	X4	Y4	Z4	X5	Y5	Z5	X6	Y6	Z6	X7	Y7	Z7	X8	Y8	Z8	X9	Y9	Z9	X10	Y10	Z10	X11	Y11	Z11	X12	Y12	Z12	X13	Y13	Z13	X14	Y14	Z14	X15	Y15	Z15	X16	Y16	Z16	X17	Y17	Z17	X18	Y18	Z18	X19	Y19	Z19	X20	Y20	Z20	X21	Y21	Z21	X22	Y22	Z22	X23	Y23	Z23	X24	Y24	Z24	X25	Y25	Z25	X26	Y26	Z26	X27	Y27	Z27	X28	Y28	Z28	X29	Y29	Z29	X30	Y30	Z30	X31	Y31	Z31	X32	Y32	Z32	X33	Y33	Z33	X34	Y34	Z34	X35	Y35	Z35	X36	Y36	Z36	X37	Y37	Z37	X38	Y38	Z38	X39	Y39	Z39	X40	Y40	Z40	X41	Y41	Z41
																																																																																																																												
1	0.01	245.81852	1618.02551	-1925.24826	76.12497	1597.62939	-1896.19598	255.75731	1593.78174	-2049.08356	40.51171	1585.5246	-1990.92621	229.65267	1351.63361	-1942.62054	96.22821	1346.67023	-1936.5007	227.85482	1392.46017	-2071.34918	78.27998	1391.14227	-2054.95392	160.98362	1222.33749	-2120.1506	165.94027	1300.03723	-1886.9426	169.95174	1205.15358	-1831.67419	323.27019	1368.89008	-1999.17175	385.58067	1137.05894	-2020.36163	395.06828	1046.82663	-1991.20941	387.82257	970.69656	-2011.42899	335.8353	827.20749	-1928.8588	406.98517	827.21703	-1931.12427	384.72076	769.58374	-1885.6601	1.7949	1365.14542	-1980.52185	-54.11776	1161.10214	-2033.8533	-72.90319	1038.3429	-1983.78799	-74.65331	943.52844	-1972.46063	-1.00266	823.7307	-1897.76978	-75.85831	811.08475	-1891.32874	-53.94046	774.76364	-1858.56155	294.30801	951.96747	-1925.74188	27.65604	950.37315	-1924.44885	242.02066	1016.56662	-2093.45505	74.75296	1030.43045	-2096.14578	295.80082	657.63222	-2070.43991	294.51153	505.48851	-2019.3573	245.45835	308.37021	-2007.25098	273.90356	160.2792	-2080.50446	216.37739	112.12932	-2135.16968	235.89298	80.74174	-1959.8996	26.91559	671.67961	-2072.55981	43.63249	505.24864	-1966.39923	53.51233	332.12288	-1997.38007	44.44916	143.18991	-2070.76981	89.64025	99.80115	-2141.04095	67.87599	82.52006	-1962.66754
2	0.043	245.90815	1618.00278	-1925.11307	76.23891	1597.64435	-1895.95032	255.76429	1593.79105	-2048.96591	40.64667	1585.37292	-1990.42496	229.67318	1351.77811	-1942.40799	96.13498	1346.74149	-1936.23199	227.74811	1392.30682	-2071.00906	78.23236	1391.09467	-2054.73175	160.94898	1222.33856	-2119.94522	165.92466	1300.25009	-1886.46576	169.96002	1205.36644	-1831.26022	323.13068	1368.91922	-1998.93021	385.37689	1137.3056	-2020.58884	395.26733	1046.95045	-1990.98862	388.04237	970.80009	-2011.12656	335.95863	827.3098	-1928.26248	407.37816	827.40204	-1930.81406	385.27332	769.80408	-1885.18021	1.78671	1365.19928	-1980.31357	-54.16982	1161.14136	-2033.52814	-72.90913	1038.39096	-1983.34183	-74.67296	943.54469	-1971.9931	-1.13704	823.76595	-1897.31171	-75.95346	811.14456	-1890.89691	-54.09993	774.84795	-1858.0481	294.19855	952.00539	-1925.44113	27.60279	950.35568	-1924.10034	241.87551	1016.60385	-2093.25027	74.58715	1030.43213	-2095.84839	295.71178	657.65999	-2070.29175	294.44836	505.5143	-2019.28207	245.38715	308.40557	-2007.19589	273.90406	160.34267	-2080.45685	216.36112	112.18144	-2135.15427	235.92464	80.78106	-1959.90173	26.82668	671.69327	-2072.44247	43.60564	505.22545	-1966.33041	53.4563	332.09171	-1997.34009	44.40325	143.22338	-2070.7196	89.64258	99.81836	-2141.03928	67.85525	82.51901	-1962.62573
3	0.077	245.64392	1617.63641	-1924.14246	76.48821	1597.62695	-1895.5365	255.79535	1593.7851	-2048.77258	40.73189	1585.49072	-1990.0676	229.6479	1351.61606	-1942.15439	96.15396	1346.71936	-1935.91675	227.74097	1392.3056	-2070.95428	78.17759	1390.94727	-2054.50684	160.9128	1222.23984	-2119.6582	165.83956	1300.16998	-1885.98541	169.98203	1205.35912	-1830.85388	322.98733	1368.97293	-1999.3927	385.87444	1136.70769	-2019.11057	395.38555	1046.87424	-1990.66422	388.15392	970.68825	-2010.71457	336.08749	827.28401	-1927.62909	407.68028	827.35962	-1930.09109	385.68268	769.83856	-1884.6611	1.77761	1365.08224	-1980.01022	-54.11336	1161.02669	-2033.27194	-72.83967	1038.26233	-1982.93625	-74.59458	943.44353	-1971.54663	-1.0762	823.79311	-1896.68961	-75.96548	811.04858	-1890.23438	-54.10807	774.83452	-1857.38312	294.01525	951.64368	-1926.64566	27.56682	950.29716	-1923.84171	241.78822	1016.61552	-2092.98569	74.4832	1030.46234	-2095.54886	295.65983	657.68387	-2070.14969	294.38223	505.4855	-2019.14276	245.36234	308.4136	-2007.11746	273.87716	160.21444	-2080.62149	216.34979	112.18404	-2135.12787	235.90961	80.76659	-1959.87	26.76218	671.72005	-2072.26807	43.54889	505.18246	-1966.21902	53.63232	332.14691	-1997.60971	44.44005	143.215	-2070.70267	89.61821	99.8498	-2141.05316	67.83679	82.51879	-1962.62833
4	0.11	245.81142	1617.67487	-1923.91495	76.53694	1597.84042	-1895.18768	255.86632	1593.71872	-2048.52936	40.76293	1585.58441	-1989.6666	229.59526	1351.29608	-1941.87057	96.10735	1346.47064	-1935.61523	227.68459	1392.12494	-2070.616	78.19389	1390.77118	-2054.08768	160.86042	1222.09145	-2119.29855	165.84566	1299.90631	-1885.80933	169.94759	1205.09766	-1830.53253	323.05672	1368.58078	-1998.78937	385.81985	1136.34521	-2018.74756	395.39787	1046.62613	-1990.35934	388.2048	970.39436	-2010.24246	336.18263	826.98524	-1926.9075	407.85213	827.1637	-1929.49036	385.93994	769.68872	-1883.95081	1.75764	1364.83612	-1979.72351	-53.96628	1160.73669	-2032.99164	-72.75867	1038.0056	-1982.61978	-74.44448	943.14804	-1971.08215	-0.99773	823.54759	-1895.96832	-75.79877	810.87326	-1889.60205	-54.00244	774.73961	-1856.68961	293.99876	951.42784	-1926.95953	27.53833	950.29251	-1923.4903	241.74253	1016.64421	-2092.64862	74.45796	1030.49377	-2095.16037	295.57125	657.70584	-2070.00092	294.32245	505.48286	-2019.07471	245.35322	308.42892	-2007.1225	273.85761	160.29074	-2080.61066	216.30909	112.18889	-2135.12054	235.9045	80.77326	-1959.84909	26.76295	671.81297	-2072.12128	43.49687	505.10399	-1966.18332	53.62898	332.174	-1997.64954	44.37433	143.17932	-2070.68283	89.61675	99.89114	-2141.04782	67.83686	82.51014	-1962.62726
